<?xml version="1.0" encoding="utf-8"?>
<!-- Generator: Adobe Illustrator 24.0.1, SVG Export Plug-In . SVG Version: 6.00 Build 0)  -->
<svg version="1.1" id="Capa_1" xmlns="http://www.w3.org/2000/svg" xmlns:xlink="http://www.w3.org/1999/xlink" x="0px" y="0px"
	 viewBox="0 0 548 548" style="enable-background:new 0 0 548 548;" xml:space="preserve">
<style type="text/css">
	.st0{opacity:0.4;}
	.st1{fill:#6F4BC3;}
</style>
<g class="st0">
	<path class="st1" d="M409.5,186l-179.2-7.7c-5.1-0.2-9.4,3.7-9.7,8.9c-0.2,5.1,3.7,9.4,8.9,9.7l167,7.2l-32.8,102.5H217.6
		l-26.4-143.8c-0.6-3.2-2.7-5.8-5.7-7l-43.2-17c-4.8-1.9-10.1,0.5-12,5.2c-1.9,4.8,0.5,10.1,5.2,12l38.4,15.1l26.9,146.3
		c0.8,4.4,4.6,7.6,9.1,7.6h4.5l-10.2,28.3c-0.9,2.4-0.5,5,0.9,7.1c1.4,2.1,3.8,3.3,6.3,3.3h7.1c-4.4,4.9-7.1,11.4-7.1,18.5
		c0,15.3,12.5,27.8,27.8,27.8c15.3,0,27.8-12.5,27.8-27.8c0-7.1-2.7-13.6-7.1-18.5h60.6c-4.4,4.9-7.1,11.4-7.1,18.5
		c0,15.3,12.5,27.8,27.8,27.8s27.8-12.5,27.8-27.8c0-7.1-2.7-13.6-7.1-18.5h8.7c4.3,0,7.7-3.5,7.7-7.7c0-4.3-3.5-7.7-7.7-7.7H222.4
		l8.3-23.2h139.8c4,0,7.6-2.6,8.8-6.4L418,198.1c0.9-2.8,0.4-5.8-1.2-8.1C415.1,187.6,412.4,186.1,409.5,186z M341.2,369.8
		c6.8,0,12.3,5.5,12.3,12.4s-5.5,12.4-12.3,12.4c-6.8,0-12.4-5.5-12.4-12.4C328.8,375.3,334.4,369.8,341.2,369.8z M239.3,369.8
		c6.8,0,12.4,5.5,12.4,12.4s-5.5,12.4-12.4,12.4c-6.8,0-12.4-5.5-12.4-12.4C226.9,375.3,232.4,369.8,239.3,369.8z M385.2,63.4
		L398.7,40c2.5-4.3,8-5.8,12.3-3.3c4.3,2.5,5.8,8,3.3,12.3l-13.5,23.4c-1.7,2.9-4.7,4.5-7.8,4.5c-1.5,0-3.1-0.4-4.5-1.2
		C384.2,73.2,382.7,67.7,385.2,63.4z M472.3,159.5c-2.5-4.3-1-9.8,3.3-12.3l23.4-13.5c4.3-2.5,9.8-1,12.3,3.3
		c2.5,4.3,1,9.8-3.3,12.3l-23.4,13.5c-1.4,0.8-3,1.2-4.5,1.2C477,164,474,162.4,472.3,159.5z M548,274c0,5-4,9-9,9h-27c-5,0-9-4-9-9
		c0-5,4-9,9-9h27C544,265,548,269,548,274z M511.3,411c-1.7,2.9-4.7,4.5-7.8,4.5c-1.5,0-3.1-0.4-4.5-1.2l-23.4-13.5
		c-4.3-2.5-5.8-8-3.3-12.3c2.5-4.3,8-5.8,12.3-3.3l23.4,13.5C512.3,401.2,513.8,406.7,511.3,411z M414.3,499c2.5,4.3,1,9.8-3.3,12.3
		c-1.4,0.8-3,1.2-4.5,1.2c-3.1,0-6.1-1.6-7.8-4.5l-13.5-23.4c-2.5-4.3-1-9.8,3.3-12.3c4.3-2.5,9.8-1,12.3,3.3L414.3,499z M283,512
		l0,27c0,5-4,9-9,9c-5,0-9-4-9-9l0-27c0-5,4-9,9-9C279,503,283,507,283,512z M162.8,484.6L149.3,508c-1.7,2.9-4.7,4.5-7.8,4.5
		c-1.5,0-3.1-0.4-4.5-1.2c-4.3-2.5-5.8-8-3.3-12.3l13.5-23.4c2.5-4.3,8-5.8,12.3-3.3C163.8,474.8,165.3,480.3,162.8,484.6z
		 M75.7,388.5c2.5,4.3,1,9.8-3.3,12.3L49,414.3c-1.4,0.8-3,1.2-4.5,1.2c-3.1,0-6.1-1.6-7.8-4.5c-2.5-4.3-1-9.8,3.3-12.3l23.4-13.5
		C67.7,382.7,73.2,384.2,75.7,388.5z M36,283H9c-5,0-9-4-9-9c0-5,4-9,9-9l27,0c5,0,9,4,9,9C45,279,41,283,36,283z M75.7,159.5
		c-1.7,2.9-4.7,4.5-7.8,4.5c-1.5,0-3.1-0.4-4.5-1.2L40,149.3c-4.3-2.5-5.8-8-3.3-12.3c2.5-4.3,8-5.8,12.3-3.3l23.4,13.5
		C76.7,149.7,78.2,155.2,75.7,159.5z M133.7,49c-2.5-4.3-1-9.8,3.3-12.3c4.3-2.5,9.8-1,12.3,3.3l13.5,23.4c2.5,4.3,1,9.8-3.3,12.3
		c-1.4,0.8-3,1.2-4.5,1.2c-3.1,0-6.1-1.6-7.8-4.5L133.7,49z M265,36V9c0-5,4-9,9-9c5,0,9,4,9,9v27c0,5-4,9-9,9C269,45,265,41,265,36
		z"/>
</g>
</svg>
